<?xml version="1.0" encoding="UTF-8" standalone="no"?>
<!DOCTYPE svg PUBLIC "-//W3C//DTD SVG 1.1//EN" "http://www.w3.org/Graphics/SVG/1.1/DTD/svg11.dtd">
<svg xmlns:dc="http://purl.org/dc/elements/1.1/" xmlns:xl="http://www.w3.org/1999/xlink" version="1.1" xmlns="http://www.w3.org/2000/svg" viewBox="-766 -102 208 135" width="208" height="135">
  <defs>
    <marker orient="auto" overflow="visible" markerUnits="strokeWidth" id="StickArrow_Marker" stroke-linejoin="miter" stroke-miterlimit="10" viewBox="-1 -3 7 6" markerWidth="7" markerHeight="6" color="#ef5ba1">
      <g>
        <path d="M 4.8 0 L 0 0 M 0 -1.8 L 4.8 0 L 0 1.8" fill="none" stroke="currentColor" stroke-width="1"/>
      </g>
    </marker>
  </defs>
  <metadata> Produced by OmniGraffle 7.8.1 
    <dc:date>2017-11-08 16:12:54 +0000</dc:date>
  </metadata>
  <g id="Canvas_1" fill-opacity="1" stroke-dasharray="none" stroke="none" stroke-opacity="1" fill="none">
    <title>Canvas 1</title>
    <rect fill="white" x="-766" y="-102" width="208" height="135"/>
    <g id="Canvas_1: Layer 1">
      <title>Layer 1</title>
      <g id="Group_24">
        <g id="Line_38">
          <line x1="-560" y1="-90" x2="-636.9231" y2="-90" stroke="black" stroke-linecap="round" stroke-linejoin="round" stroke-width="3"/>
        </g>
        <g id="Line_37">
          <line x1="-560" y1="-100" x2="-636.9231" y2="-100" stroke="black" stroke-linecap="round" stroke-linejoin="round" stroke-width="3"/>
        </g>
        <g id="Line_36">
          <line x1="-560" y1="-80" x2="-636.9231" y2="-80" stroke="black" stroke-linecap="round" stroke-linejoin="round" stroke-width="3"/>
        </g>
        <g id="Line_35">
          <line x1="-565" y1="-70" x2="-636.53846" y2="-70" stroke="black" stroke-linecap="round" stroke-linejoin="round" stroke-width="3"/>
        </g>
        <g id="Line_34">
          <line x1="-565" y1="-60" x2="-636.53846" y2="-60" stroke="#26bdcf" stroke-linecap="round" stroke-linejoin="round" stroke-width="3"/>
        </g>
        <g id="Line_33">
          <line x1="-560" y1="-10" x2="-636.9231" y2="-10" stroke="black" stroke-linecap="round" stroke-linejoin="round" stroke-width="3"/>
        </g>
        <g id="Line_32">
          <line x1="-560" y1="0" x2="-636.9231" y2="0" stroke="black" stroke-linecap="round" stroke-linejoin="round" stroke-width="3"/>
        </g>
        <g id="Line_31">
          <line x1="-575" y1="10" x2="-636.53846" y2="10" stroke="black" stroke-linecap="round" stroke-linejoin="round" stroke-width="3"/>
        </g>
        <g id="Line_30">
          <line x1="-560" y1="20" x2="-636.9231" y2="20" stroke="black" stroke-linecap="round" stroke-linejoin="round" stroke-width="3"/>
        </g>
        <g id="Line_29">
          <line x1="-575" y1="-50" x2="-636.53846" y2="-50" stroke="#26bdcf" stroke-linecap="round" stroke-linejoin="round" stroke-width="3"/>
        </g>
        <g id="Line_28">
          <line x1="-575" y1="-40" x2="-636.53846" y2="-40" stroke="#26bdcf" stroke-linecap="round" stroke-linejoin="round" stroke-width="3"/>
        </g>
        <g id="Line_27">
          <line x1="-575" y1="-30" x2="-636.53846" y2="-30" stroke="#26bdcf" stroke-linecap="round" stroke-linejoin="round" stroke-width="3"/>
        </g>
        <g id="Line_26">
          <line x1="-565" y1="-20" x2="-636.53846" y2="-20" stroke="black" stroke-linecap="round" stroke-linejoin="round" stroke-width="3"/>
        </g>
        <g id="Line_25">
          <line x1="-560" y1="30" x2="-636.9231" y2="30" stroke="black" stroke-linecap="round" stroke-linejoin="round" stroke-width="3"/>
        </g>
      </g>
      <g id="Graphic_23">
        <path d="M -750 -55 C -753.75 -55 -765 -55 -765 -47.5 C -765 -40 -753.75 -40 -750 -40 C -746.25 -40 -750 -40 -750 -40 C -747.516 -40 -735 -40 -735 -47.5 C -735 -55 -746.25 -55 -750 -55 Z" fill="white"/>
        <path d="M -750 -55 C -753.75 -55 -765 -55 -765 -47.5 C -765 -40 -753.75 -40 -750 -40 C -746.25 -40 -750 -40 -750 -40 C -747.516 -40 -735 -40 -735 -47.5 C -735 -55 -746.25 -55 -750 -55 Z" stroke="#808285" stroke-linecap="round" stroke-linejoin="round" stroke-width="2"/>
      </g>
      <g id="Line_22">
        <path d="M -640 -65 L -650 -65 L -650 -25 L -640 -25" stroke="#ef5ba1" stroke-linecap="round" stroke-linejoin="round" stroke-width="2"/>
      </g>
      <g id="Line_21">
        <path d="M -735.0624 -48.44808 C -707.41325 -50.190374 -682.6461 -51.45097 -662.5909 -48.25237" marker-end="url(#StickArrow_Marker)" stroke="#ef5ba1" stroke-linecap="round" stroke-linejoin="round" stroke-width="2"/>
      </g>
    </g>
  </g>
</svg>
