<?xml version="1.0" encoding="UTF-8" standalone="no"?>
<!DOCTYPE svg PUBLIC "-//W3C//DTD SVG 1.1//EN" "http://www.w3.org/Graphics/SVG/1.1/DTD/svg11.dtd">
<svg xmlns:dc="http://purl.org/dc/elements/1.1/" xmlns:xl="http://www.w3.org/1999/xlink" version="1.1" xmlns="http://www.w3.org/2000/svg" viewBox="-825 -85 161 75" width="161" height="75">
  <defs>
    <marker orient="auto" overflow="visible" markerUnits="strokeWidth" id="StickArrow_Marker" stroke-linejoin="miter" stroke-miterlimit="10" viewBox="-6 -3 7 6" markerWidth="7" markerHeight="6" color="#808285">
      <g>
        <path d="M -4.8 0 L 0 0 M 0 1.8 L -4.8 0 L 0 -1.8" fill="none" stroke="currentColor" stroke-width="1"/>
      </g>
    </marker>
    <marker orient="auto" overflow="visible" markerUnits="strokeWidth" id="StickArrow_Marker_2" stroke-linejoin="miter" stroke-miterlimit="10" viewBox="-1 -3 7 6" markerWidth="7" markerHeight="6" color="#ef5ba1">
      <g>
        <path d="M 4.8 0 L 0 0 M 0 -1.8 L 4.8 0 L 0 1.8" fill="none" stroke="currentColor" stroke-width="1"/>
      </g>
    </marker>
  </defs>
  <metadata> Produced by OmniGraffle 7.8.1 
    <dc:date>2017-11-08 16:14:11 +0000</dc:date>
  </metadata>
  <g id="Canvas_1" fill-opacity="1" stroke-dasharray="none" stroke="none" stroke-opacity="1" fill="none">
    <title>Canvas 1</title>
    <rect fill="white" x="-825" y="-85" width="161" height="75"/>
    <g id="Canvas_1: Layer 1">
      <title>Layer 1</title>
      <g id="Graphic_11">
        <rect x="-825" y="-55" width="50" height="10" fill="black"/>
      </g>
      <g id="Graphic_10">
        <rect x="-765" y="-55" width="65" height="10" fill="black"/>
      </g>
      <g id="Graphic_9">
        <rect x="-770" y="-80" width="90" height="10" fill="#808285"/>
      </g>
      <g id="Graphic_8">
        <rect x="-805" y="-20" width="50" height="10" fill="black"/>
      </g>
      <g id="Graphic_7">
        <rect x="-745" y="-20" width="50" height="10" fill="black"/>
      </g>
      <g id="Graphic_6">
        <rect x="-805" y="-37.5" width="90" height="10" fill="#26bdcf"/>
      </g>
      <g id="Graphic_5">
        <path d="M -825 -75 L -820 -85 L -810 -85 L -805 -75 L -810 -65 L -820 -65 Z" fill="#808285"/>
      </g>
      <g id="Line_4">
        <line x1="-787.1" y1="-76" x2="-780" y2="-76" marker-start="url(#StickArrow_Marker)" stroke="#808285" stroke-linecap="round" stroke-linejoin="round" stroke-width="2"/>
      </g>
      <g id="Line_3">
        <path d="M -680 -75 C -657.1057 -65.842285 -659.37055 -39.91182 -702.1545 -33.68862" marker-end="url(#StickArrow_Marker_2)" stroke="#ef5ba1" stroke-linecap="round" stroke-linejoin="round" stroke-width="2"/>
      </g>
    </g>
  </g>
</svg>
