<?xml version="1.0" encoding="UTF-8" standalone="no"?>
<!DOCTYPE svg PUBLIC "-//W3C//DTD SVG 1.1//EN" "http://www.w3.org/Graphics/SVG/1.1/DTD/svg11.dtd">
<svg xmlns:dc="http://purl.org/dc/elements/1.1/" xmlns:xl="http://www.w3.org/1999/xlink" version="1.1" xmlns="http://www.w3.org/2000/svg" viewBox="-811 -176 152 97" width="152" height="97">
  <defs>
    <marker orient="auto" overflow="visible" markerUnits="strokeWidth" id="StickArrow_Marker" stroke-linejoin="miter" stroke-miterlimit="10" viewBox="-1 -3 7 6" markerWidth="7" markerHeight="6" color="#ef5ba1">
      <g>
        <path d="M 4.8 0 L 0 0 M 0 -1.8 L 4.8 0 L 0 1.8" fill="none" stroke="currentColor" stroke-width="1"/>
      </g>
    </marker>
    <marker orient="auto" overflow="visible" markerUnits="strokeWidth" id="StickArrow_Marker_2" stroke-linejoin="miter" stroke-miterlimit="10" viewBox="-1 -3 7 6" markerWidth="7" markerHeight="6" color="#808285">
      <g>
        <path d="M 4.8 0 L 0 0 M 0 -1.8 L 4.8 0 L 0 1.8" fill="none" stroke="currentColor" stroke-width="1"/>
      </g>
    </marker>
    <marker orient="auto" overflow="visible" markerUnits="strokeWidth" id="StickArrow_Marker_3" stroke-linejoin="miter" stroke-miterlimit="10" viewBox="-1 -3 7 6" markerWidth="7" markerHeight="6" color="#26bdcf">
      <g>
        <path d="M 4.8 0 L 0 0 M 0 -1.8 L 4.8 0 L 0 1.8" fill="none" stroke="currentColor" stroke-width="1"/>
      </g>
    </marker>
  </defs>
  <metadata> Produced by OmniGraffle 7.8.1 
    <dc:date>2017-11-26 15:01:36 +0000</dc:date>
  </metadata>
  <g id="Canvas_1" fill-opacity="1" stroke-dasharray="none" stroke="none" stroke-opacity="1" fill="none">
    <title>Canvas 1</title>
    <rect fill="white" x="-811" y="-176" width="152" height="97"/>
    <g id="Canvas_1: Layer 1">
      <title>Layer 1</title>
      <g id="Graphic_17">
        <rect x="-810" y="-171.15385" width="40" height="21.763222" fill="white"/>
        <rect x="-810" y="-171.15385" width="40" height="21.763222" stroke="black" stroke-linecap="round" stroke-linejoin="round" stroke-width="2"/>
      </g>
      <g id="Graphic_16">
        <path d="M -790 -95 C -786.25 -95 -775 -95 -775 -87.5 C -775 -80 -786.25 -80 -790 -80 C -793.75 -80 -790 -80 -790 -80 C -792.484 -80 -805 -80 -805 -87.5 C -805 -95 -793.75 -95 -790 -95 Z" fill="white"/>
        <path d="M -790 -95 C -786.25 -95 -775 -95 -775 -87.5 C -775 -80 -786.25 -80 -790 -80 C -793.75 -80 -790 -80 -790 -80 C -792.484 -80 -805 -80 -805 -87.5 C -805 -95 -793.75 -95 -790 -95 Z" stroke="#26bdcf" stroke-linecap="round" stroke-linejoin="round" stroke-width="2"/>
      </g>
      <g id="Line_14">
        <path d="M -750 -155 C -757.6289 -147.3711 -762.3478 -136.83218 -764.1567 -123.7931" marker-end="url(#StickArrow_Marker)" stroke="#ef5ba1" stroke-linecap="round" stroke-linejoin="round" stroke-width="2"/>
      </g>
      <g id="Group_3">
        <g id="Line_12">
          <line x1="-660" y1="-175" x2="-690.7692" y2="-175" stroke="black" stroke-linecap="round" stroke-linejoin="round" stroke-width="2"/>
        </g>
        <g id="Line_11">
          <line x1="-660" y1="-169.61538" x2="-690.7692" y2="-169.61538" stroke="black" stroke-linecap="round" stroke-linejoin="round" stroke-width="2"/>
        </g>
        <g id="Line_10">
          <line x1="-660" y1="-164.23077" x2="-690.7692" y2="-164.23077" stroke="black" stroke-linecap="round" stroke-linejoin="round" stroke-width="2"/>
        </g>
        <g id="Line_9">
          <line x1="-666.15385" y1="-158.84615" x2="-690.7692" y2="-158.84615" stroke="black" stroke-linecap="round" stroke-linejoin="round" stroke-width="2"/>
        </g>
        <g id="Line_8">
          <line x1="-666.15385" y1="-153.46154" x2="-690.7692" y2="-153.46154" stroke="black" stroke-linecap="round" stroke-linejoin="round" stroke-width="2"/>
        </g>
        <g id="Line_7">
          <line x1="-660" y1="-148.07692" x2="-690.7692" y2="-148.07692" stroke="black" stroke-linecap="round" stroke-linejoin="round" stroke-width="2"/>
        </g>
        <g id="Line_6">
          <line x1="-660" y1="-142.6923" x2="-690.7692" y2="-142.6923" stroke="black" stroke-linecap="round" stroke-linejoin="round" stroke-width="2"/>
        </g>
        <g id="Line_5">
          <line x1="-666.15385" y1="-137.3077" x2="-690.7692" y2="-137.3077" stroke="black" stroke-linecap="round" stroke-linejoin="round" stroke-width="2"/>
        </g>
        <g id="Line_4">
          <line x1="-660" y1="-131.92308" x2="-690.7692" y2="-131.92308" stroke="black" stroke-linecap="round" stroke-linejoin="round" stroke-width="2"/>
        </g>
      </g>
      <g id="Line_18">
        <line x1="-700" y1="-160.27224" x2="-756.6" y2="-160.27224" marker-end="url(#StickArrow_Marker_2)" stroke="#808285" stroke-linecap="round" stroke-linejoin="round" stroke-width="2"/>
      </g>
      <g id="Line_19">
        <line x1="-700" y1="-140" x2="-767.9252" y2="-100.37696" marker-end="url(#StickArrow_Marker_3)" stroke="#26bdcf" stroke-linecap="round" stroke-linejoin="round" stroke-width="2"/>
      </g>
      <g id="Line_20">
        <line x1="-790" y1="-95" x2="-790" y2="-135.99062" marker-end="url(#StickArrow_Marker_3)" stroke="#26bdcf" stroke-linecap="round" stroke-linejoin="round" stroke-width="2"/>
      </g>
    </g>
  </g>
</svg>
